<?xml version="1.0" encoding="utf-8"?>
<!-- Generator: Adobe Illustrator 22.1.0, SVG Export Plug-In . SVG Version: 6.00 Build 0)  -->
<svg version="1.1" id="Layer_1" xmlns="http://www.w3.org/2000/svg" xmlns:xlink="http://www.w3.org/1999/xlink" x="0px" y="0px"
	 viewBox="0 0 30 30" style="enable-background:new 0 0 30 30;" xml:space="preserve">
<style type="text/css">
	.st0{fill:#FFFFFF;}
	.st1{fill:#3C86C7;}
</style>
<path class="st0" d="M15,0c8.3,0,15,6.7,15,15c0,8.3-6.7,15-15,15C6.7,30,0,23.3,0,15C0,6.7,6.7,0,15,0z M18.2,6.7
	c0.3,2.4,1.6,3.8,3.9,3.9v2.6c-1.3,0.1-2.5-0.3-3.8-1.1v4.9c0,6.3-6.9,8.3-9.6,3.8c-1.8-2.9-0.7-8,5-8.2v2.8
	c-0.4,0.1-0.9,0.2-1.3,0.3c-1.3,0.4-2,1.2-1.8,2.6c0.4,2.7,5.4,3.5,4.9-1.8V6.7L18.2,6.7L18.2,6.7z"/>
<path class="st1" d="M18.2,6.7c0.3,2.4,1.6,3.8,3.9,3.9v2.6c-1.3,0.1-2.5-0.3-3.8-1.1v4.9c0,6.3-6.9,8.3-9.6,3.8
	c-1.8-2.9-0.7-8,5-8.2v2.8c-0.4,0.1-0.9,0.2-1.3,0.3c-1.3,0.4-2,1.2-1.8,2.6c0.4,2.7,5.4,3.5,4.9-1.8V6.7L18.2,6.7L18.2,6.7z"/>
</svg>
